<?xml version="1.0" encoding="utf-8"?>
<!-- Generator: Adobe Illustrator 23.0.1, SVG Export Plug-In . SVG Version: 6.00 Build 0)  -->
<svg version="1.1" id="Camada_1" xmlns="http://www.w3.org/2000/svg" xmlns:xlink="http://www.w3.org/1999/xlink" x="0px" y="0px"
	 viewBox="0 0 1400 980" style="enable-background:new 0 0 1400 980;" xml:space="preserve">
<style type="text/css">
	.st0{opacity:0.22;fill:#4F4747;enable-background:new    ;}
	.st1{opacity:0.43;fill:#443D3D;}
	.st2{fill:url(#SVGID_1_);}
	.st3{fill:url(#SVGID_2_);}
	.st4{fill:url(#SVGID_3_);}
	.st5{fill:url(#SVGID_4_);}
	.st6{fill:url(#SVGID_5_);}
	.st7{fill:url(#SVGID_6_);}
	.st8{opacity:0.5;fill:#F0A53F;enable-background:new    ;}
	.st9{fill:url(#SVGID_7_);}
	.st10{fill:url(#SVGID_8_);}
	.st11{fill:url(#SVGID_9_);}
	.st12{fill:url(#SVGID_10_);}
	.st13{fill:url(#SVGID_11_);}
	.st14{fill:url(#SVGID_12_);}
	.st15{fill:url(#SVGID_13_);}
	.st16{opacity:0.5;fill:#4DEDED;enable-background:new    ;}
	.st17{fill:url(#SVGID_14_);}
	.st18{fill:url(#SVGID_15_);}
	.st19{fill:#FAAF40;}
	.st20{fill:url(#SVGID_16_);}
	.st21{fill:url(#SVGID_17_);}
	.st22{fill:url(#SVGID_18_);}
	.st23{fill:url(#SVGID_19_);}
	.st24{fill:url(#SVGID_20_);}
	.st25{fill:url(#SVGID_21_);}
	.st26{fill:url(#SVGID_22_);}
	.st27{fill:url(#SVGID_23_);}
	.st28{fill:url(#SVGID_24_);}
	.st29{fill:url(#SVGID_25_);}
	.st30{fill:url(#SVGID_26_);}
	.st31{fill:url(#SVGID_27_);}
	.st32{fill:url(#SVGID_28_);}
	.st33{fill:url(#SVGID_29_);}
	.st34{fill:url(#SVGID_30_);}
	.st35{fill:url(#SVGID_31_);}
	.st36{fill:url(#SVGID_32_);}
	.st37{fill:url(#SVGID_33_);}
	.st38{fill:url(#SVGID_34_);}
	.st39{fill:url(#SVGID_35_);}
	.st40{fill:url(#SVGID_36_);}
	.st41{opacity:0.5;fill:#BA5088;enable-background:new    ;}
	.st42{fill:#F6ECB2;}
	.st43{fill:url(#SVGID_37_);}
	.st44{fill:url(#SVGID_38_);}
	.st45{fill:url(#SVGID_39_);}
	.st46{fill:url(#SVGID_40_);}
	.st47{opacity:0.5;fill:url(#SVGID_41_);enable-background:new    ;}
	.st48{opacity:0.5;fill:url(#SVGID_42_);enable-background:new    ;}
	.st49{opacity:0.5;fill:url(#SVGID_43_);enable-background:new    ;}
	.st50{opacity:0.5;fill:url(#SVGID_44_);enable-background:new    ;}
	.st51{opacity:0.5;fill:url(#SVGID_45_);enable-background:new    ;}
	.st52{opacity:0.5;fill:url(#SVGID_46_);enable-background:new    ;}
	.st53{opacity:0.5;fill:#D245F4;enable-background:new    ;}
	.st54{fill:url(#SVGID_47_);}
	.st55{fill:url(#SVGID_48_);}
	.st56{fill:url(#SVGID_49_);}
	.st57{fill:url(#SVGID_50_);}
	.st58{fill:url(#SVGID_51_);}
	.st59{fill:url(#SVGID_52_);}
	.st60{fill:url(#SVGID_53_);}
	.st61{fill:url(#SVGID_54_);}
	.st62{fill:url(#SVGID_55_);}
	.st63{fill:url(#SVGID_56_);}
</style>
<g id="background">
	<circle class="st0" cx="700" cy="490" r="487.2"/>
	<circle class="st1" cx="700" cy="490" r="351"/>
</g>
<g id="object">
	
		<linearGradient id="SVGID_1_" gradientUnits="userSpaceOnUse" x1="717.9668" y1="587.5332" x2="672.645" y2="441.8994" gradientTransform="matrix(1 0 0 -1 0 980)">
		<stop  offset="0" style="stop-color:#FF3C68"/>
		<stop  offset="1" style="stop-color:#FF924D"/>
	</linearGradient>
	<circle class="st2" cx="700" cy="450.2" r="151.7"/>
	<g>
		
			<linearGradient id="SVGID_2_" gradientUnits="userSpaceOnUse" x1="631.7783" y1="487.6723" x2="894.0399" y2="649.6219" gradientTransform="matrix(1 0 0 -1 0 980)">
			<stop  offset="0" style="stop-color:#652D90;stop-opacity:0.4"/>
			<stop  offset="1" style="stop-color:#FF924D;stop-opacity:0.6"/>
		</linearGradient>
		<path class="st3" d="M700,631.8c-100.1,0-181.6-81.5-181.6-181.6S599.9,268.6,700,268.6s181.6,81.5,181.6,181.6
			S800.1,631.8,700,631.8z M700,277.1c-95.5,0-173.1,77.7-173.1,173.1c0,95.5,77.7,173.1,173.1,173.1s173.1-77.7,173.1-173.1
			C873.1,354.7,795.5,277.1,700,277.1z"/>
	</g>
	
		<linearGradient id="SVGID_3_" gradientUnits="userSpaceOnUse" x1="687.813" y1="440.7518" x2="721.6532" y2="595.45" gradientTransform="matrix(1 0 0 -1 0 980)">
		<stop  offset="0" style="stop-color:#FF3C68"/>
		<stop  offset="1" style="stop-color:#FF924D"/>
	</linearGradient>
	<path class="st4" d="M851.7,450.2c0-21.9-4.6-42.7-13-61.5c-60-0.4-130.4,88-187.8,101.8c-36.7,8.8-73.9,1-98.9-7.1
		c15.1,67.8,75.7,118.5,148,118.5C783.8,601.9,851.7,534,851.7,450.2z"/>
	
		<linearGradient id="SVGID_4_" gradientUnits="userSpaceOnUse" x1="714.2215" y1="443.3496" x2="707.5743" y2="504.3828" gradientTransform="matrix(1 0 0 -1 0 980)">
		<stop  offset="0" style="stop-color:#FF3C68"/>
		<stop  offset="1" style="stop-color:#FF924D"/>
	</linearGradient>
	<path class="st5" d="M851.7,450.2c0-9.8-0.9-19.3-2.7-28.6c-61.8,11.6-131.5,87.6-189.2,100.3c-34.3,7.6-69,2.9-95.4-3.7
		c24.9,49.6,76.3,83.6,135.6,83.6C783.8,601.9,851.7,534,851.7,450.2z"/>
	
		<linearGradient id="SVGID_5_" gradientUnits="userSpaceOnUse" x1="713.097" y1="418.3085" x2="737.9353" y2="531.855" gradientTransform="matrix(1 0 0 -1 0 980)">
		<stop  offset="0" style="stop-color:#FF3C68"/>
		<stop  offset="1" style="stop-color:#FF924D"/>
	</linearGradient>
	<path class="st6" d="M700,601.9c81.4,0,147.8-64.1,151.5-144.6c-62.4,10-133.3,87.9-191.7,100.8c-22,4.9-44.2,4.7-64.2,2.2
		C622.8,586,659.5,601.9,700,601.9z"/>
	
		<linearGradient id="SVGID_6_" gradientUnits="userSpaceOnUse" x1="752.5259" y1="395.4178" x2="747.6917" y2="446.7824" gradientTransform="matrix(1 0 0 -1 0 980)">
		<stop  offset="0" style="stop-color:#FF3C68"/>
		<stop  offset="1" style="stop-color:#FF924D"/>
	</linearGradient>
	<path class="st7" d="M845.6,492.8c-60.9,13.7-129.2,87.1-185.8,99.6c-2.7,0.6-5.4,1.1-8.1,1.6c15.2,5.1,31.4,7.9,48.3,7.9
		C769,601.9,827.2,555.8,845.6,492.8z"/>
	<path class="st8" d="M700,298.5c-83.8,0-151.7,67.9-151.7,151.7c0,1.1,0,2.2,0,3.3c1.8-78.6,66-141.7,145-141.7
		c80.1,0,145,64.9,145,145c0,79-63.1,143.2-141.7,145c1.1,0,2.2,0,3.3,0c83.8,0,151.7-67.9,151.7-151.7S783.8,298.5,700,298.5z"/>
	<g>
		<g>
			
				<linearGradient id="SVGID_7_" gradientUnits="userSpaceOnUse" x1="549.0176" y1="1002.0007" x2="668.2529" y2="1002.0007" gradientTransform="matrix(0.9487 -0.3161 -0.3161 -0.9487 114.7201 1336.5876)">
				<stop  offset="0" style="stop-color:#0392D4"/>
				<stop  offset="1" style="stop-color:#51FFD5"/>
			</linearGradient>
			<circle class="st9" cx="375.4" cy="193.6" r="59.6"/>
			
				<linearGradient id="SVGID_8_" gradientUnits="userSpaceOnUse" x1="609.1732" y1="971.638" x2="598.5178" y2="959.6319" gradientTransform="matrix(0.9487 -0.3161 -0.3161 -0.9487 114.7201 1336.5876)">
				<stop  offset="0" style="stop-color:#0392D4"/>
				<stop  offset="1" style="stop-color:#00D2E9"/>
			</linearGradient>
			<circle class="st10" cx="382.4" cy="229.5" r="8"/>
			
				<linearGradient id="SVGID_9_" gradientUnits="userSpaceOnUse" x1="645.9142" y1="1030.8365" x2="629.2755" y2="1012.0887" gradientTransform="matrix(0.9487 -0.3161 -0.3161 -0.9487 114.7201 1336.5876)">
				<stop  offset="0" style="stop-color:#0392D4"/>
				<stop  offset="1" style="stop-color:#00D2E9"/>
			</linearGradient>
			<circle class="st11" cx="396.8" cy="165.8" r="12.5"/>
			
				<linearGradient id="SVGID_10_" gradientUnits="userSpaceOnUse" x1="629.3052" y1="1008.6617" x2="620.6559" y2="998.9161" gradientTransform="matrix(0.9487 -0.3161 -0.3161 -0.9487 114.7201 1336.5876)">
				<stop  offset="0" style="stop-color:#0392D4"/>
				<stop  offset="1" style="stop-color:#00D2E9"/>
			</linearGradient>
			<circle class="st12" cx="390.4" cy="186.6" r="6.5"/>
			
				<linearGradient id="SVGID_11_" gradientUnits="userSpaceOnUse" x1="578.9589" y1="1027.3813" x2="570.3096" y2="1017.6357" gradientTransform="matrix(0.9487 -0.3161 -0.3161 -0.9487 114.7201 1336.5876)">
				<stop  offset="0" style="stop-color:#0392D4"/>
				<stop  offset="1" style="stop-color:#00D2E9"/>
			</linearGradient>
			<circle class="st13" cx="336.7" cy="184.8" r="6.5"/>
			
				<linearGradient id="SVGID_12_" gradientUnits="userSpaceOnUse" x1="640.2085" y1="978.4877" x2="635.1531" y2="972.7914" gradientTransform="matrix(0.9487 -0.3161 -0.3161 -0.9487 114.7201 1336.5876)">
				<stop  offset="0" style="stop-color:#0392D4"/>
				<stop  offset="1" style="stop-color:#00D2E9"/>
			</linearGradient>
			<circle class="st14" cx="411.3" cy="209.4" r="3.8"/>
			
				<linearGradient id="SVGID_13_" gradientUnits="userSpaceOnUse" x1="604.3384" y1="1033.7589" x2="599.2831" y2="1028.0627" gradientTransform="matrix(0.9487 -0.3161 -0.3161 -0.9487 114.7201 1336.5876)">
				<stop  offset="0" style="stop-color:#0392D4"/>
				<stop  offset="1" style="stop-color:#00D2E9"/>
			</linearGradient>
			<circle class="st15" cx="359.8" cy="168.3" r="3.8"/>
			<path class="st16" d="M356.6,137.1c-31.2,10.4-48.1,44.2-37.7,75.4c0.1,0.4,0.3,0.8,0.4,1.2c-9.1-29.5,7-61,36.5-70.9
				c29.9-10,62.2,6.2,72.1,36.1c9.8,29.5-5.8,61.3-34.8,71.7c0.4-0.1,0.8-0.3,1.2-0.4c31.2-10.4,48.1-44.2,37.7-75.4
				C421.6,143.5,387.8,126.7,356.6,137.1z"/>
		</g>
		
			<linearGradient id="SVGID_14_" gradientUnits="userSpaceOnUse" x1="606.9332" y1="1028.1104" x2="609.7037" y2="988.1362" gradientTransform="matrix(0.9487 -0.3161 -0.3161 -0.9487 114.7201 1336.5876)">
			<stop  offset="0" style="stop-color:#652D90;stop-opacity:0.4"/>
			<stop  offset="1" style="stop-color:#51FFD5;stop-opacity:0.6"/>
		</linearGradient>
		<path class="st17" d="M424.1,159.2c0.9,1.3,1.7,2.6,2.5,3.9c0.4,0,0.7-0.1,1.1-0.1c18.5-2.2,24.5,0.5,25.1,2.4s-2.6,7.7-18.7,17
			c-14,8.1-33.4,16.4-54.7,23.5c-21.3,7.1-41.8,12.1-57.9,14c-18.5,2.2-24.5-0.5-25.1-2.4s2.6-7.7,18.7-17c0.3-0.2,0.6-0.4,1-0.5
			c-0.2-1.5-0.3-3.1-0.3-4.6c-15.6,8.6-25.4,17.2-23.3,23.5c4,12.1,47.5,4.6,88.3-9s80-33.7,76-45.8
			C454.7,157.7,441.8,156.7,424.1,159.2z"/>
	</g>
	<g>
		
			<linearGradient id="SVGID_15_" gradientUnits="userSpaceOnUse" x1="170.1103" y1="166.6" x2="398.6149" y2="166.6" gradientTransform="matrix(1 0 0 -1 0 980)">
			<stop  offset="0" style="stop-color:#27022B;stop-opacity:0"/>
			<stop  offset="0.1001" style="stop-color:#2E072B;stop-opacity:0.1001"/>
			<stop  offset="0.2507" style="stop-color:#431629;stop-opacity:0.2507"/>
			<stop  offset="0.433" style="stop-color:#652D27;stop-opacity:0.433"/>
			<stop  offset="0.6402" style="stop-color:#944E24;stop-opacity:0.6402"/>
			<stop  offset="0.8652" style="stop-color:#CF7720;stop-opacity:0.8652"/>
			<stop  offset="1" style="stop-color:#F6921E"/>
		</linearGradient>
		<path class="st18" d="M397.3,749.1L397.3,749.1c-2.6-4.6-8.5-6.3-13.2-3.6L175,864.5c-4.6,2.6-6.3,8.5-3.6,13.2l0,0
			c2.6,4.6,8.5,6.3,13.2,3.6l209.2-119C398.4,759.7,400,753.8,397.3,749.1z"/>
		<ellipse class="st19" cx="388.22" cy="754.29" rx="8.5" ry="8.5"/>
	</g>
	<g>
		
			<linearGradient id="SVGID_16_" gradientUnits="userSpaceOnUse" x1="806.2103" y1="804.1" x2="1034.7454" y2="804.1" gradientTransform="matrix(1 0 0 -1 0 980)">
			<stop  offset="0" style="stop-color:#27022B;stop-opacity:0"/>
			<stop  offset="0.1001" style="stop-color:#2E072B;stop-opacity:0.1001"/>
			<stop  offset="0.2507" style="stop-color:#431629;stop-opacity:0.2507"/>
			<stop  offset="0.433" style="stop-color:#652D27;stop-opacity:0.433"/>
			<stop  offset="0.6402" style="stop-color:#944E24;stop-opacity:0.6402"/>
			<stop  offset="0.8652" style="stop-color:#CF7720;stop-opacity:0.8652"/>
			<stop  offset="1" style="stop-color:#F6921E"/>
		</linearGradient>
		<path class="st20" d="M1033.5,111.6L1033.5,111.6c-2.6-4.6-8.5-6.3-13.2-3.6L811.1,227c-4.6,2.6-6.3,8.5-3.6,13.2l0,0
			c2.6,4.6,8.5,6.3,13.2,3.6l209.2-119C1034.5,122.2,1036.1,116.3,1033.5,111.6z"/>
		<ellipse class="st19" cx="1024.38" cy="116.73" rx="8.5" ry="8.5"/>
	</g>
	<g>
		
			<linearGradient id="SVGID_17_" gradientUnits="userSpaceOnUse" x1="384.5102" y1="558.4" x2="613.0897" y2="558.4" gradientTransform="matrix(1 0 0 -1 0 980)">
			<stop  offset="0" style="stop-color:#27022B;stop-opacity:0"/>
			<stop  offset="0.1001" style="stop-color:#2E072B;stop-opacity:0.1001"/>
			<stop  offset="0.2507" style="stop-color:#431629;stop-opacity:0.2507"/>
			<stop  offset="0.433" style="stop-color:#652D27;stop-opacity:0.433"/>
			<stop  offset="0.6402" style="stop-color:#944E24;stop-opacity:0.6402"/>
			<stop  offset="0.8652" style="stop-color:#CF7720;stop-opacity:0.8652"/>
			<stop  offset="1" style="stop-color:#F6921E"/>
		</linearGradient>
		<path class="st21" d="M611.8,357.3L611.8,357.3c-2.6-4.6-8.5-6.3-13.2-3.6l-209.2,119c-4.6,2.6-6.3,8.5-3.6,13.2l0,0
			c2.6,4.6,8.5,6.3,13.2,3.6l209.2-119C612.8,367.9,614.5,362,611.8,357.3z"/>
		<ellipse class="st19" cx="602.7" cy="362.48" rx="8.5" ry="8.5"/>
	</g>
	<g>
		
			<linearGradient id="SVGID_18_" gradientUnits="userSpaceOnUse" x1="723.5103" y1="373.2" x2="952.0453" y2="373.2" gradientTransform="matrix(1 0 0 -1 0 980)">
			<stop  offset="0" style="stop-color:#27022B;stop-opacity:0"/>
			<stop  offset="0.1001" style="stop-color:#2E072B;stop-opacity:0.1001"/>
			<stop  offset="0.2507" style="stop-color:#431629;stop-opacity:0.2507"/>
			<stop  offset="0.433" style="stop-color:#652D27;stop-opacity:0.433"/>
			<stop  offset="0.6402" style="stop-color:#944E24;stop-opacity:0.6402"/>
			<stop  offset="0.8652" style="stop-color:#CF7720;stop-opacity:0.8652"/>
			<stop  offset="1" style="stop-color:#F6921E"/>
		</linearGradient>
		<path class="st22" d="M950.8,542.5L950.8,542.5c-2.6-4.6-8.5-6.3-13.2-3.6l-209.2,119c-4.6,2.6-6.3,8.5-3.6,13.2l0,0
			c2.6,4.6,8.5,6.3,13.2,3.6l209.2-119C951.8,553.1,953.4,547.2,950.8,542.5z"/>
		<ellipse class="st19" cx="941.71" cy="547.65" rx="8.5" ry="8.5"/>
	</g>
	
		<linearGradient id="SVGID_19_" gradientUnits="userSpaceOnUse" x1="327.3" y1="617.5" x2="392.3" y2="617.5" gradientTransform="matrix(1 0 0 -1 0 980)">
		<stop  offset="0" style="stop-color:#462470;stop-opacity:0"/>
		<stop  offset="1" style="stop-color:#A13E6D;stop-opacity:0.3"/>
	</linearGradient>
	<circle class="st23" cx="359.8" cy="362.5" r="32.5"/>
	
		<linearGradient id="SVGID_20_" gradientUnits="userSpaceOnUse" x1="1127.3" y1="627.5" x2="1192.3" y2="627.5" gradientTransform="matrix(1 0 0 -1 0 980)">
		<stop  offset="0" style="stop-color:#462470;stop-opacity:0"/>
		<stop  offset="1" style="stop-color:#00D2E9;stop-opacity:0.3"/>
	</linearGradient>
	<circle class="st24" cx="1159.8" cy="352.5" r="32.5"/>
	
		<linearGradient id="SVGID_21_" gradientUnits="userSpaceOnUse" x1="105.1" y1="405.7" x2="170.1" y2="405.7" gradientTransform="matrix(1 0 0 -1 0 980)">
		<stop  offset="0" style="stop-color:#462470;stop-opacity:0"/>
		<stop  offset="1" style="stop-color:#B6DBB0;stop-opacity:0.3"/>
	</linearGradient>
	<circle class="st25" cx="137.6" cy="574.3" r="32.5"/>
	
		<linearGradient id="SVGID_22_" gradientUnits="userSpaceOnUse" x1="1214.5" y1="243" x2="1279.5" y2="243" gradientTransform="matrix(1 0 0 -1 0 980)">
		<stop  offset="0" style="stop-color:#462470;stop-opacity:0"/>
		<stop  offset="1" style="stop-color:#B6DBB0;stop-opacity:0.3"/>
	</linearGradient>
	<circle class="st26" cx="1247" cy="737" r="32.5"/>
	
		<linearGradient id="SVGID_23_" gradientUnits="userSpaceOnUse" x1="646.0829" y1="876.6" x2="675.6054" y2="876.6" gradientTransform="matrix(1 0 0 -1 0 980)">
		<stop  offset="0" style="stop-color:#462470;stop-opacity:0"/>
		<stop  offset="1" style="stop-color:#B6DBB0;stop-opacity:0.3"/>
	</linearGradient>
	<circle class="st27" cx="660.8" cy="103.4" r="14.8"/>
	
		<linearGradient id="SVGID_24_" gradientUnits="userSpaceOnUse" x1="140.5628" y1="876.6" x2="170.0853" y2="876.6" gradientTransform="matrix(1 0 0 -1 0 980)">
		<stop  offset="0" style="stop-color:#462470;stop-opacity:0"/>
		<stop  offset="1" style="stop-color:#B6DBB0;stop-opacity:0.3"/>
	</linearGradient>
	<circle class="st28" cx="155.3" cy="103.4" r="14.8"/>
	
		<linearGradient id="SVGID_25_" gradientUnits="userSpaceOnUse" x1="348.8621" y1="111.4" x2="378.3846" y2="111.4" gradientTransform="matrix(1 0 0 -1 0 980)">
		<stop  offset="0" style="stop-color:#462470;stop-opacity:0"/>
		<stop  offset="1" style="stop-color:#A13E6D;stop-opacity:0.3"/>
	</linearGradient>
	<circle class="st29" cx="363.6" cy="868.6" r="14.8"/>
	
		<linearGradient id="SVGID_26_" gradientUnits="userSpaceOnUse" x1="1087.4749" y1="900.5" x2="1116.9973" y2="900.5" gradientTransform="matrix(1 0 0 -1 0 980)">
		<stop  offset="0" style="stop-color:#462470;stop-opacity:0"/>
		<stop  offset="1" style="stop-color:#B6DBB0;stop-opacity:0.3"/>
	</linearGradient>
	<circle class="st30" cx="1102.2" cy="79.5" r="14.8"/>
	
		<linearGradient id="SVGID_27_" gradientUnits="userSpaceOnUse" x1="823.0511" y1="279.7" x2="852.5736" y2="279.7" gradientTransform="matrix(1 0 0 -1 0 980)">
		<stop  offset="0" style="stop-color:#462470;stop-opacity:0"/>
		<stop  offset="1" style="stop-color:#F0A53F;stop-opacity:0.3"/>
	</linearGradient>
	<circle class="st31" cx="837.8" cy="700.3" r="14.8"/>
	<g>
		
			<linearGradient id="SVGID_28_" gradientUnits="userSpaceOnUse" x1="489.7743" y1="387.1929" x2="554.7882" y2="387.1929" gradientTransform="matrix(0.9767 -0.2146 -0.2146 -0.9767 11.6795 1199.2529)">
			<stop  offset="0" style="stop-color:#462470"/>
			<stop  offset="1" style="stop-color:#A13E6D"/>
		</linearGradient>
		<circle class="st32" cx="438.7" cy="709" r="32.5"/>
		
			<linearGradient id="SVGID_29_" gradientUnits="userSpaceOnUse" x1="526.9988" y1="399.9001" x2="521.1907" y2="393.3556" gradientTransform="matrix(0.9767 -0.2146 -0.2146 -0.9767 11.6795 1199.2529)">
			<stop  offset="0" style="stop-color:#462470"/>
			<stop  offset="1" style="stop-color:#A13E6D"/>
		</linearGradient>
		<circle class="st33" cx="438.5" cy="699.3" r="4.4"/>
		
			<linearGradient id="SVGID_30_" gradientUnits="userSpaceOnUse" x1="509.1442" y1="404.456" x2="500.0745" y2="394.2367" gradientTransform="matrix(0.9767 -0.2146 -0.2146 -0.9767 11.6795 1199.2529)">
			<stop  offset="0" style="stop-color:#462470"/>
			<stop  offset="1" style="stop-color:#A13E6D"/>
		</linearGradient>
		<circle class="st34" cx="418.9" cy="700.8" r="6.8"/>
		
			<linearGradient id="SVGID_31_" gradientUnits="userSpaceOnUse" x1="522.0963" y1="377.4618" x2="517.3816" y2="372.1495" gradientTransform="matrix(0.9767 -0.2146 -0.2146 -0.9767 11.6795 1199.2529)">
			<stop  offset="0" style="stop-color:#462470"/>
			<stop  offset="1" style="stop-color:#A13E6D"/>
		</linearGradient>
		<circle class="st35" cx="438.9" cy="721.6" r="3.5"/>
		
			<linearGradient id="SVGID_32_" gradientUnits="userSpaceOnUse" x1="500.1156" y1="385.1317" x2="495.401" y2="379.8194" gradientTransform="matrix(0.9767 -0.2146 -0.2146 -0.9767 11.6795 1199.2529)">
			<stop  offset="0" style="stop-color:#462470"/>
			<stop  offset="1" style="stop-color:#A13E6D"/>
		</linearGradient>
		<circle class="st36" cx="415.8" cy="718.8" r="3.5"/>
		
			<linearGradient id="SVGID_33_" gradientUnits="userSpaceOnUse" x1="539.4843" y1="374.3257" x2="536.7286" y2="371.2207" gradientTransform="matrix(0.9767 -0.2146 -0.2146 -0.9767 11.6795 1199.2529)">
			<stop  offset="0" style="stop-color:#462470"/>
			<stop  offset="1" style="stop-color:#A13E6D"/>
		</linearGradient>
		<circle class="st37" cx="457.3" cy="719.6" r="2.1"/>
		
			<linearGradient id="SVGID_34_" gradientUnits="userSpaceOnUse" x1="514.1365" y1="409.9069" x2="511.3809" y2="406.8021" gradientTransform="matrix(0.9767 -0.2146 -0.2146 -0.9767 11.6795 1199.2529)">
			<stop  offset="0" style="stop-color:#462470"/>
			<stop  offset="1" style="stop-color:#A13E6D"/>
		</linearGradient>
		<circle class="st38" cx="424.9" cy="690.3" r="2.1"/>
		
			<linearGradient id="SVGID_35_" gradientUnits="userSpaceOnUse" x1="514.1329" y1="364.2382" x2="511.3773" y2="361.1332" gradientTransform="matrix(0.9767 -0.2146 -0.2146 -0.9767 11.6795 1199.2529)">
			<stop  offset="0" style="stop-color:#462470"/>
			<stop  offset="1" style="stop-color:#A13E6D"/>
		</linearGradient>
		<circle class="st39" cx="434.7" cy="734.9" r="2.1"/>
		
			<linearGradient id="SVGID_36_" gradientUnits="userSpaceOnUse" x1="541.5647" y1="401.0105" x2="538.8091" y2="397.9055" gradientTransform="matrix(0.9767 -0.2146 -0.2146 -0.9767 11.6795 1199.2529)">
			<stop  offset="0" style="stop-color:#462470"/>
			<stop  offset="1" style="stop-color:#A13E6D"/>
		</linearGradient>
		<circle class="st40" cx="453.6" cy="693.1" r="2.1"/>
		<path class="st41" d="M431.8,677.3c-17.5,3.9-28.6,21.2-24.8,38.7c0.1,0.2,0.1,0.5,0.2,0.7c-3.2-16.5,7.3-32.7,23.8-36.3
			c16.8-3.7,33.3,6.9,37,23.7c3.6,16.5-6.6,32.9-23,36.9c0.2,0,0.5-0.1,0.7-0.1c17.5-3.9,28.6-21.2,24.8-38.7
			C466.6,684.5,449.3,673.4,431.8,677.3z"/>
	</g>
	<polygon class="st42" points="1244.8,445.5 1247,446.7 1244.8,448 1243.5,450.2 1242.3,448 1240.1,446.7 1242.3,445.5 
		1243.5,443.3 	"/>
	<polygon class="st42" points="472.7,839.1 471,831.7 469.2,839.1 462.5,840.8 469.2,842.5 471,850.3 472.7,842.5 480,840.8 	"/>
	<polygon class="st42" points="1069.8,350.5 1068.1,343.2 1066.3,350.5 1059.6,352.3 1066.3,354 1068.1,361.7 1069.8,354 
		1077.1,352.3 	"/>
	<polygon class="st42" points="1027.7,509.8 1026,502.5 1024.3,509.8 1017.6,511.6 1024.3,513.3 1026,521 1027.7,513.3 
		1035.1,511.6 	"/>
	<polygon class="st42" points="383.8,331.3 382.1,323.9 380.4,331.3 373.6,333 380.4,334.7 382.1,342.5 383.8,334.7 391.2,333 	"/>
	<polygon class="st42" points="632.7,702.6 631,695.2 629.3,702.6 622.5,704.3 629.3,706 631,713.8 632.7,706 640.1,704.3 	"/>
	<polygon class="st42" points="331.6,598 329.9,590.6 328.2,598 321.4,599.7 328.2,601.4 329.9,609.2 331.6,601.4 338.9,599.7 	"/>
	<polygon class="st42" points="679.1,220.1 677.4,212.7 675.7,220.1 668.9,221.8 675.7,223.5 677.4,231.3 679.1,223.5 686.5,221.8 	
		"/>
	<polygon class="st42" points="750.1,101.4 748.4,94.1 746.6,101.4 739.9,103.2 746.6,104.9 748.4,112.6 750.1,104.9 757.4,103.2 	
		"/>
	<polygon class="st42" points="597,84.4 595.3,77.1 593.6,84.4 586.8,86.1 593.6,87.9 595.3,95.6 597,87.9 604.3,86.1 	"/>
	<polygon class="st42" points="554.5,253.8 551.5,240.9 548.4,253.8 536.7,256.8 548.4,259.8 551.5,273.4 554.5,259.8 567.3,256.8 	
		"/>
	<polygon class="st42" points="1066.7,810.1 1063.7,797.2 1060.7,810.1 1048.9,813.1 1060.7,816.1 1063.7,829.6 1066.7,816.1 
		1079.5,813.1 	"/>
	<polygon class="st42" points="923,63.6 920,50.8 916.9,63.6 905.2,66.7 916.9,69.7 920,83.2 923,69.7 935.8,66.7 	"/>
	<polygon class="st42" points="187.9,316.6 184.9,303.8 181.8,316.6 170.1,319.6 181.8,322.6 184.9,336.2 187.9,322.6 200.7,319.6 	
		"/>
	<polygon class="st42" points="553.8,740.6 550.8,727.7 547.7,740.6 536,743.6 547.7,746.6 550.8,760.1 553.8,746.6 566.6,743.6 	
		"/>
	<polygon class="st42" points="962.8,463.5 959.7,450.7 956.7,463.5 945,466.6 956.7,469.6 959.7,483.1 962.8,469.6 975.5,466.6 	
		"/>
	<g>
		
			<linearGradient id="SVGID_37_" gradientUnits="userSpaceOnUse" x1="961.8911" y1="280.2473" x2="1065.424" y2="362.7841" gradientTransform="matrix(1 0 0 -1 0 980)">
			<stop  offset="0" style="stop-color:#8329E1"/>
			<stop  offset="1" style="stop-color:#C500F2"/>
		</linearGradient>
		<circle class="st43" cx="1024.3" cy="650" r="89.5"/>
		<g>
			
				<linearGradient id="SVGID_38_" gradientUnits="userSpaceOnUse" x1="1044.2471" y1="243.6552" x2="922.956" y2="329.3755" gradientTransform="matrix(1 0 0 -1 0 980)">
				<stop  offset="0" style="stop-color:#8329E1"/>
				<stop  offset="1" style="stop-color:#C500F2"/>
			</linearGradient>
			<path class="st44" d="M934.8,649.7c0,0.1,0,0.2,0,0.3c0,6.4,0.7,12.6,1.9,18.6l78.9,70.5c2.9,0.3,5.7,0.4,8.7,0.4
				c15.2,0,29.5-3.8,42.1-10.5L934.8,649.7z"/>
			
				<linearGradient id="SVGID_39_" gradientUnits="userSpaceOnUse" x1="1075.9285" y1="288.4832" x2="954.6372" y2="374.2035" gradientTransform="matrix(1 0 0 -1 0 980)">
				<stop  offset="0" style="stop-color:#8329E1"/>
				<stop  offset="1" style="stop-color:#C500F2"/>
			</linearGradient>
			<path class="st45" d="M964.6,583.3c-12.1,10.8-21.2,24.8-26,40.7l152.6,85.3c4.2-4.7,7.9-9.9,11-15.4L964.6,583.3z"/>
			
				<linearGradient id="SVGID_40_" gradientUnits="userSpaceOnUse" x1="1104.7947" y1="329.328" x2="983.5035" y2="415.0482" gradientTransform="matrix(1 0 0 -1 0 980)">
				<stop  offset="0" style="stop-color:#8329E1"/>
				<stop  offset="1" style="stop-color:#C500F2"/>
			</linearGradient>
			<path class="st46" d="M1003.9,562.8l104,118.9c3.7-9.9,5.8-20.6,5.8-31.8c0-8.4-1.2-16.5-3.3-24.1l-96-64.8
				C1010.8,561.4,1007.4,562,1003.9,562.8z"/>
		</g>
		
			<linearGradient id="SVGID_41_" gradientUnits="userSpaceOnUse" x1="1022.1431" y1="394.0373" x2="1006.1534" y2="376.0208" gradientTransform="matrix(1 0 0 -1 0 980)">
			<stop  offset="0" style="stop-color:#703F79"/>
			<stop  offset="1" style="stop-color:#C500F2"/>
		</linearGradient>
		<circle class="st47" cx="1014.3" cy="594.8" r="12"/>
		
			<linearGradient id="SVGID_42_" gradientUnits="userSpaceOnUse" x1="1021.8194" y1="326.9684" x2="996.861" y2="298.8461" gradientTransform="matrix(1 0 0 -1 0 980)">
			<stop  offset="0" style="stop-color:#703F79"/>
			<stop  offset="1" style="stop-color:#C500F2"/>
		</linearGradient>
		<circle class="st48" cx="1009.6" cy="666.8" r="18.8"/>
		
			<linearGradient id="SVGID_43_" gradientUnits="userSpaceOnUse" x1="1076.2897" y1="349.5996" x2="1063.3104" y2="334.9751" gradientTransform="matrix(1 0 0 -1 0 980)">
			<stop  offset="0" style="stop-color:#703F79"/>
			<stop  offset="1" style="stop-color:#C500F2"/>
		</linearGradient>
		<circle class="st49" cx="1069.9" cy="637.6" r="9.7"/>
		
			<linearGradient id="SVGID_44_" gradientUnits="userSpaceOnUse" x1="969.746" y1="340.0505" x2="956.7669" y2="325.426" gradientTransform="matrix(1 0 0 -1 0 980)">
			<stop  offset="0" style="stop-color:#703F79"/>
			<stop  offset="1" style="stop-color:#C500F2"/>
		</linearGradient>
		<circle class="st50" cx="963.4" cy="647.1" r="9.7"/>
		
			<linearGradient id="SVGID_45_" gradientUnits="userSpaceOnUse" x1="1073.6163" y1="294.5874" x2="1066.0302" y2="286.0396" gradientTransform="matrix(1 0 0 -1 0 980)">
			<stop  offset="0" style="stop-color:#703F79"/>
			<stop  offset="1" style="stop-color:#C500F2"/>
		</linearGradient>
		<circle class="st51" cx="1069.9" cy="689.6" r="5.7"/>
		
			<linearGradient id="SVGID_46_" gradientUnits="userSpaceOnUse" x1="998.1903" y1="278.1581" x2="990.6042" y2="269.6103" gradientTransform="matrix(1 0 0 -1 0 980)">
			<stop  offset="0" style="stop-color:#703F79"/>
			<stop  offset="1" style="stop-color:#C500F2"/>
		</linearGradient>
		<circle class="st52" cx="994.5" cy="706" r="5.7"/>
		<path class="st53" d="M1024.3,560.5c-49.4,0-89.5,40.1-89.5,89.5c0,0.7,0,1.3,0,2c1-46.3,38.9-83.6,85.5-83.6
			c47.2,0,85.5,38.3,85.5,85.5c0,46.6-37.2,84.5-83.6,85.5c0.7,0,1.3,0,2,0c49.4,0,89.5-40.1,89.5-89.5
			C1113.7,600.6,1073.7,560.5,1024.3,560.5z"/>
	</g>
	
		<linearGradient id="SVGID_47_" gradientUnits="userSpaceOnUse" x1="1803.004" y1="1227.0088" x2="1744.5499" y2="1268.3201" gradientTransform="matrix(-0.7071 -0.7071 -0.7071 0.7071 2954.5369 549.5532)">
		<stop  offset="0" style="stop-color:#51FFD5"/>
		<stop  offset="1" style="stop-color:#C500F2"/>
	</linearGradient>
	<path class="st54" d="M779.6,146c-5.9,6.4-5.8,16.4,0.1,22.7c2.9,3,6.6,4.8,10.4,5.2c9.9,1,19.2,5.7,26.2,12.7l1.1,1.1
		c7.1,7.1,11.7,16.3,12.7,26.2c0.4,3.8,2.1,7.6,5.2,10.4c6.3,6,16.3,6,22.7,0.1c7-6.5,7.2-17.4,0.5-24c-2.8-2.8-6.3-4.4-9.9-4.8
		c-10.2-1.1-19.8-5.6-27.1-12.8l-0.2-0.2c-7.3-7.3-11.7-16.9-12.8-27.1c-0.4-3.6-2-7.2-4.8-9.9C797,138.9,786.1,139,779.6,146z"/>
	
		<linearGradient id="SVGID_48_" gradientUnits="userSpaceOnUse" x1="1596.7087" y1="1033.2312" x2="1538.2546" y2="1074.5425" gradientTransform="matrix(-0.7071 -0.7071 -0.7071 0.7071 2954.5369 549.5532)">
		<stop  offset="0" style="stop-color:#4C1662"/>
		<stop  offset="1" style="stop-color:#FF3C68"/>
	</linearGradient>
	<path class="st55" d="M1062.5,154.9c-5.9,6.4-5.8,16.4,0.1,22.7c2.9,3,6.6,4.8,10.4,5.2c9.9,1,19.2,5.7,26.2,12.7l1.1,1.1
		c7.1,7.1,11.7,16.3,12.7,26.2c0.4,3.8,2.1,7.6,5.2,10.4c6.3,6,16.3,6,22.7,0.1c7-6.5,7.2-17.4,0.5-24c-2.8-2.8-6.3-4.4-9.9-4.8
		c-10.2-1.1-19.8-5.6-27.1-12.8l-0.2-0.2c-7.3-7.3-11.7-16.9-12.8-27.1c-0.4-3.6-2-7.2-4.8-9.9
		C1079.9,147.7,1069,147.9,1062.5,154.9z"/>
	
		<linearGradient id="SVGID_49_" gradientUnits="userSpaceOnUse" x1="1800.4028" y1="1999.5887" x2="1761.3656" y2="2027.1777" gradientTransform="matrix(-0.7071 -0.7071 -0.7071 0.7071 2954.5369 549.5532)">
		<stop  offset="0" style="stop-color:#FF924D"/>
		<stop  offset="1" style="stop-color:#C500F2"/>
	</linearGradient>
	<path class="st56" d="M245.9,692.9c-3.9,4.3-3.9,10.9,0.1,15.2c1.9,2,4.4,3.2,7,3.4c6.6,0.7,12.8,3.8,17.5,8.5l0.7,0.7
		c4.7,4.7,7.8,10.9,8.5,17.5c0.3,2.6,1.4,5,3.4,7c4.2,4,10.9,4,15.2,0.1c4.7-4.3,4.8-11.6,0.3-16c-1.9-1.9-4.2-2.9-6.6-3.2
		c-6.8-0.8-13.2-3.7-18.1-8.6l-0.2-0.2c-4.9-4.9-7.8-11.3-8.6-18.1c-0.3-2.4-1.3-4.8-3.2-6.6C257.5,688.2,250.2,688.3,245.9,692.9z"
		/>
	
		<linearGradient id="SVGID_50_" gradientUnits="userSpaceOnUse" x1="690.203" y1="174.0375" x2="594.2079" y2="270.0326" gradientTransform="matrix(1 0 0 -1 0 980)">
		<stop  offset="0" style="stop-color:#4C1662"/>
		<stop  offset="1" style="stop-color:#FF3C68"/>
	</linearGradient>
	<path class="st57" d="M634.2,750.6c-4,4.3-3.9,11,0.1,15.2c1.9,2,4.4,3.2,7,3.5c6.7,0.7,12.8,3.8,17.6,8.5l0.7,0.7
		c4.7,4.7,7.9,10.9,8.5,17.6c0.3,2.6,1.4,5.1,3.5,7c4.2,4,10.9,4,15.2,0.1c4.7-4.3,4.8-11.6,0.3-16.1c-1.9-1.9-4.2-2.9-6.7-3.2
		c-6.9-0.8-13.3-3.7-18.2-8.6l-0.2-0.2c-4.9-4.9-7.8-11.3-8.6-18.2c-0.3-2.4-1.3-4.8-3.2-6.7C645.9,745.9,638.6,746,634.2,750.6z"/>
	
		<linearGradient id="SVGID_51_" gradientUnits="userSpaceOnUse" x1="245.6882" y1="769.0688" x2="123.1248" y2="855.6882" gradientTransform="matrix(-0.7071 -0.7071 -0.7071 0.7071 1076.5675 33.5904)">
		<stop  offset="0" style="stop-color:#00D2E9"/>
		<stop  offset="1" style="stop-color:#4C1662"/>
	</linearGradient>
	<path class="st58" d="M288.7,408.2c-5.9,6.4-5.8,16.4,0.1,22.7c2.9,3,6.6,4.8,10.4,5.2c9.9,1,19.2,5.7,26.2,12.7l93,93
		c7.1,7.1,11.7,16.3,12.7,26.2c0.4,3.8,2.1,7.6,5.2,10.4c6.3,6,16.3,6,22.7,0.1c7-6.5,7.2-17.4,0.5-24c-2.8-2.8-6.3-4.4-9.9-4.8
		c-10.2-1.1-19.8-5.6-27.1-12.8l-92.1-92.1c-7.3-7.3-11.7-16.9-12.8-27.1c-0.4-3.6-2-7.2-4.8-9.9C306.1,401,295.2,401.2,288.7,408.2
		z"/>
	
		<linearGradient id="SVGID_52_" gradientUnits="userSpaceOnUse" x1="-410.3961" y1="653.8307" x2="-447.9363" y2="680.3616" gradientTransform="matrix(-0.7071 -0.7071 -0.7071 0.7071 1076.5675 33.5904)">
		<stop  offset="0" style="stop-color:#462470"/>
		<stop  offset="1" style="stop-color:#A13E6D"/>
	</linearGradient>
	<path class="st59" d="M882.9,787.5c-1.8,2-1.8,5,0,7c0.9,0.9,2,1.5,3.2,1.6c3,0.3,5.9,1.7,8,3.9l28.5,28.5c2.2,2.2,3.6,5,3.9,8
		c0.1,1.2,0.6,2.3,1.6,3.2c1.9,1.8,5,1.8,7,0c2.1-2,2.2-5.3,0.1-7.4c-0.9-0.9-1.9-1.3-3-1.5c-3.1-0.3-6.1-1.7-8.3-3.9l-28.2-28.2
		c-2.2-2.2-3.6-5.2-3.9-8.3c-0.1-1.1-0.6-2.2-1.5-3C888.2,785.3,884.9,785.3,882.9,787.5z"/>
	
		<linearGradient id="SVGID_53_" gradientUnits="userSpaceOnUse" x1="385.1967" y1="438.5011" x2="347.6564" y2="465.032" gradientTransform="matrix(-0.7071 -0.7071 -0.7071 0.7071 1076.5675 33.5904)">
		<stop  offset="0" style="stop-color:#0392D4"/>
		<stop  offset="1" style="stop-color:#00D2E9"/>
	</linearGradient>
	<path class="st60" d="M472.6,72.7c-1.8,2-1.8,5,0,7c0.9,0.9,2,1.5,3.2,1.6c3,0.3,5.9,1.7,8,3.9l28.5,28.5c2.2,2.2,3.6,5,3.9,8
		c0.1,1.2,0.6,2.3,1.6,3.2c1.9,1.8,5,1.8,7,0c2.1-2,2.2-5.3,0.1-7.4c-0.9-0.9-1.9-1.3-3-1.5c-3.1-0.3-6.1-1.7-8.3-3.9l-28.2-28.2
		c-2.2-2.2-3.6-5.2-3.9-8.3c-0.1-1.1-0.6-2.2-1.5-3C477.9,70.5,474.6,70.5,472.6,72.7z"/>
	
		<linearGradient id="SVGID_54_" gradientUnits="userSpaceOnUse" x1="-172.7031" y1="273.7093" x2="-246.2767" y2="325.7061" gradientTransform="matrix(-0.7071 -0.7071 -0.7071 0.7071 1076.5675 33.5904)">
		<stop  offset="0" style="stop-color:#FF924D"/>
		<stop  offset="1" style="stop-color:#C500F2"/>
	</linearGradient>
	<path class="st61" d="M962.9,352c-3.5,3.8-3.5,9.8,0.1,13.6c1.7,1.8,4,2.9,6.3,3.1c6,0.6,11.5,3.4,15.7,7.7l55.8,55.8
		c4.2,4.2,7,9.8,7.7,15.7c0.2,2.3,1.3,4.5,3.1,6.3c3.8,3.6,9.8,3.6,13.6,0.1c4.2-3.9,4.3-10.4,0.3-14.4c-1.7-1.7-3.8-2.6-6-2.9
		c-6.1-0.7-11.9-3.3-16.3-7.7L987.9,374c-4.4-4.4-7-10.1-7.7-16.3c-0.2-2.2-1.2-4.3-2.9-6C973.3,347.7,966.8,347.8,962.9,352z"/>
	<g>
		
			<linearGradient id="SVGID_55_" gradientUnits="userSpaceOnUse" x1="723.5103" y1="657.5" x2="952.0453" y2="657.5" gradientTransform="matrix(1 0 0 -1 0 980)">
			<stop  offset="0" style="stop-color:#27022B;stop-opacity:0"/>
			<stop  offset="0.1001" style="stop-color:#2E072B;stop-opacity:0.1001"/>
			<stop  offset="0.2507" style="stop-color:#431629;stop-opacity:0.2507"/>
			<stop  offset="0.433" style="stop-color:#652D27;stop-opacity:0.433"/>
			<stop  offset="0.6402" style="stop-color:#944E24;stop-opacity:0.6402"/>
			<stop  offset="0.8652" style="stop-color:#CF7720;stop-opacity:0.8652"/>
			<stop  offset="1" style="stop-color:#F6921E"/>
		</linearGradient>
		<path class="st62" d="M950.8,258.2L950.8,258.2c-2.6-4.6-8.5-6.3-13.2-3.6l-209.2,119c-4.6,2.6-6.3,8.5-3.6,13.2l0,0
			c2.6,4.6,8.5,6.3,13.2,3.6l209.2-119C951.8,268.7,953.4,262.8,950.8,258.2z"/>
		<ellipse class="st19" cx="941.68" cy="263.25" rx="8.5" ry="8.5"/>
	</g>
	<g>
		
			<linearGradient id="SVGID_56_" gradientUnits="userSpaceOnUse" x1="390.4102" y1="378.1" x2="618.9453" y2="378.1" gradientTransform="matrix(1 0 0 -1 0 980)">
			<stop  offset="0" style="stop-color:#27022B;stop-opacity:0"/>
			<stop  offset="0.1001" style="stop-color:#2E072B;stop-opacity:0.1001"/>
			<stop  offset="0.2507" style="stop-color:#431629;stop-opacity:0.2507"/>
			<stop  offset="0.433" style="stop-color:#652D27;stop-opacity:0.433"/>
			<stop  offset="0.6402" style="stop-color:#944E24;stop-opacity:0.6402"/>
			<stop  offset="0.8652" style="stop-color:#CF7720;stop-opacity:0.8652"/>
			<stop  offset="1" style="stop-color:#F6921E"/>
		</linearGradient>
		<path class="st63" d="M617.7,537.6L617.7,537.6c-2.6-4.6-8.5-6.3-13.2-3.6L395.3,653c-4.6,2.6-6.3,8.5-3.6,13.2l0,0
			c2.6,4.6,8.5,6.3,13.2,3.6l209.2-119C618.7,548.1,620.3,542.2,617.7,537.6z"/>
		<ellipse class="st19" cx="608.53" cy="542.78" rx="8.5" ry="8.5"/>
	</g>
</g>
<g id="text">
</g>
</svg>
