<?xml version="1.0" encoding="utf-8"?>
<!-- Generator: Adobe Illustrator 23.0.1, SVG Export Plug-In . SVG Version: 6.00 Build 0)  -->
<svg version="1.1" id="Layer_1_1_" xmlns="http://www.w3.org/2000/svg" xmlns:xlink="http://www.w3.org/1999/xlink" x="0px" y="0px"
	viewBox="0 0 1405.02 1070" style="enable-background:new 0 0 1405.02 1070;" xml:space="preserve">
<style type="text/css">
	.st0{opacity:0.05;fill:#FFFFFF;}
	.st1{fill:url(#SVGID_1_);}
	.st2{fill:url(#SVGID_2_);}
	.st3{fill:url(#SVGID_3_);}
	.st4{fill:url(#SVGID_4_);}
	.st5{fill:url(#SVGID_5_);}
	.st6{fill:url(#SVGID_6_);}
	.st7{fill:url(#SVGID_7_);}
	.st8{fill:#FFFFFF;}
	.st9{fill:url(#SVGID_8_);}
	.st10{fill:url(#SVGID_9_);}
	.st11{fill:url(#SVGID_10_);}
	.st12{fill:url(#SVGID_11_);}
	.st13{opacity:0.13;fill:#F9E600;}
	.st14{opacity:0.53;fill:#F9E600;}
	.st15{fill:#1A013C;}
	.st16{fill:url(#SVGID_12_);}
	.st17{fill:url(#SVGID_13_);}
</style>
<g>
	<g>
		<g>
			<g>
				<ellipse class="st0" cx="758.75" cy="528.04" rx="639.33" ry="308.1"/>
				<ellipse class="st0" cx="759.07" cy="511.88" rx="433.13" ry="208.74"/>
				<ellipse class="st0" cx="1105.52" cy="900.48" rx="77.15" ry="44.17"/>
				<radialGradient id="SVGID_1_" cx="241.8617" cy="418.9251" r="37.4507" gradientUnits="userSpaceOnUse">
					<stop  offset="0" style="stop-color:#8CBDB7"/>
					<stop  offset="1" style="stop-color:#1F768F"/>
				</radialGradient>
				<circle class="st1" cx="236.18" cy="427.86" r="30.7"/>
				
					<radialGradient id="SVGID_2_" cx="663.9183" cy="150.6575" r="25.6815" gradientTransform="matrix(0 1 -1 0 1046.2333 -638.967)" gradientUnits="userSpaceOnUse">
					<stop  offset="0" style="stop-color:#8CBDB7"/>
					<stop  offset="1" style="stop-color:#1F768F"/>
				</radialGradient>
				<circle class="st2" cx="889.45" cy="21.05" r="21.05"/>
				
					<radialGradient id="SVGID_3_" cx="753.2682" cy="564.6636" r="25.6816" gradientTransform="matrix(0 1 -1 0 1046.2333 -638.967)" gradientUnits="userSpaceOnUse">
					<stop  offset="0" style="stop-color:#FF55F1"/>
					<stop  offset="1" style="stop-color:#550034"/>
				</radialGradient>
				<circle class="st3" cx="475.44" cy="110.4" r="21.05"/>
				
					<radialGradient id="SVGID_4_" cx="853.7914" cy="-225.4486" r="25.6816" gradientTransform="matrix(0 1 -1 0 1046.2333 -638.967)" gradientUnits="userSpaceOnUse">
					<stop  offset="0" style="stop-color:#FF9F7F"/>
					<stop  offset="1" style="stop-color:#3F1700"/>
				</radialGradient>
				<circle class="st4" cx="1265.56" cy="210.93" r="21.05"/>
				<radialGradient id="SVGID_5_" cx="790.8541" cy="17.6163" r="9.268" gradientUnits="userSpaceOnUse">
					<stop  offset="0" style="stop-color:#FF0047"/>
					<stop  offset="1" style="stop-color:#57006A"/>
				</radialGradient>
				<path class="st5" d="M797.04,19.83c0,4.2-3.4,7.6-7.6,7.6c-4.2,0-7.6-3.4-7.6-7.6s3.4-7.6,7.6-7.6
					C793.64,12.23,797.04,15.63,797.04,19.83z"/>
				<radialGradient id="SVGID_6_" cx="876.4473" cy="342.1485" r="9.2679" gradientUnits="userSpaceOnUse">
					<stop  offset="0" style="stop-color:#8CBDB7"/>
					<stop  offset="1" style="stop-color:#1F768F"/>
				</radialGradient>
				<circle class="st6" cx="875.04" cy="344.36" r="7.6"/>
				<radialGradient id="SVGID_7_" cx="119.5275" cy="585.5982" r="9.2679" gradientUnits="userSpaceOnUse">
					<stop  offset="0" style="stop-color:#8CBDB7"/>
					<stop  offset="1" style="stop-color:#1F768F"/>
				</radialGradient>
				<circle class="st7" cx="118.12" cy="587.81" r="7.6"/>
				<circle class="st8" cx="291.14" cy="262.07" r="7.6"/>
				<path class="st8" d="M918.49,954.96c0,0.69-0.56,1.25-1.25,1.25c-0.69,0-1.25-0.56-1.25-1.25c0-0.69,0.56-1.25,1.25-1.25
					C917.92,953.71,918.49,954.27,918.49,954.96z"/>
				<path class="st8" d="M822.25,1068.75c0,0.69-0.56,1.25-1.25,1.25c-0.69,0-1.25-0.56-1.25-1.25c0-0.69,0.56-1.25,1.25-1.25
					C821.69,1067.49,822.25,1068.05,822.25,1068.75z"/>
				<circle class="st8" cx="693.93" cy="992.84" r="1.25"/>
				<circle class="st8" cx="550.66" cy="981.14" r="1.25"/>
				<path class="st8" d="M326.21,670.63c0,0.69-0.56,1.25-1.25,1.25c-0.69,0-1.25-0.56-1.25-1.25c0-0.69,0.56-1.25,1.25-1.25
					C325.65,669.38,326.21,669.94,326.21,670.63z"/>
				<circle class="st8" cx="1327.78" cy="395.08" r="1.25"/>
				<path class="st8" d="M682.83,337.08c0,0.69-0.56,1.25-1.25,1.25c-0.69,0-1.25-0.56-1.25-1.25c0-0.69,0.56-1.25,1.25-1.25
					C682.27,335.83,682.83,336.39,682.83,337.08z"/>
				
					<ellipse transform="matrix(0.7071 -0.7071 0.7071 0.7071 -484.1282 586.5543)" class="st8" cx="465.97" cy="877.67" rx="11.04" ry="11.04"/>
				<circle class="st8" cx="502.09" cy="1052.7" r="7.5"/>
				
					<ellipse transform="matrix(0.7071 -0.7071 0.7071 0.7071 -280.5421 909.256)" class="st8" cx="957.3" cy="793.27" rx="11.04" ry="11.04"/>
				
					<ellipse transform="matrix(0.1684 -0.9857 0.9857 0.1684 -741.9621 1115.5228)" class="st0" cx="290.18" cy="997.51" rx="11.04" ry="11.04"/>
				
					<ellipse transform="matrix(0.1623 -0.9867 0.9867 0.1623 -610.1956 606.0712)" class="st0" cx="51.84" cy="662.4" rx="51.84" ry="51.84"/>
				
					<ellipse transform="matrix(0.7071 -0.7071 0.7071 0.7071 191.3312 1058.2313)" class="st0" cx="1373.06" cy="298.16" rx="31.95" ry="31.95"/>
				
					<ellipse transform="matrix(0.2575 -0.9663 0.9663 0.2575 41.3138 418.2397)" class="st0" cx="292.8" cy="182.24" rx="14.16" ry="14.16"/>
				
					<ellipse transform="matrix(0.9492 -0.3146 0.3146 0.9492 -59.8411 253.5575)" class="st0" cx="755.56" cy="312.16" rx="14.16" ry="14.16"/>
				<circle class="st0" cx="1091.44" cy="191.87" r="13.73"/>
				<circle class="st0" cx="448.43" cy="978.87" r="13.73"/>
				<circle class="st0" cx="1306.95" cy="823.5" r="13.73"/>
				<circle class="st0" cx="956.47" cy="629.83" r="13.73"/>
				<circle class="st0" cx="622.6" cy="619.71" r="13.73"/>
				<path class="st8" d="M1362.75,449.98c0,0.54-0.44,0.98-0.98,0.98c-0.54,0-0.98-0.44-0.98-0.98c0-0.54,0.44-0.98,0.98-0.98
					C1362.31,449,1362.75,449.44,1362.75,449.98z"/>
				<path class="st8" d="M367.53,443.94c0,0.54-0.44,0.98-0.98,0.98c-0.54,0-0.98-0.44-0.98-0.98c0-0.54,0.44-0.98,0.98-0.98
					C367.09,442.96,367.53,443.4,367.53,443.94z"/>
				<path class="st8" d="M1304.28,369.22c0,4.76-3.86,8.61-8.61,8.61c-4.76,0-8.61-3.86-8.61-8.61c0-4.76,3.86-8.61,8.61-8.61
					C1300.42,360.61,1304.28,364.46,1304.28,369.22z"/>
				<path class="st8" d="M864.21,268c0,4.76-3.86,8.61-8.61,8.61c-4.76,0-8.61-3.86-8.61-8.61c0-4.76,3.86-8.61,8.61-8.61
					C860.36,259.39,864.21,263.24,864.21,268z"/>
				<circle class="st8" cx="514.17" cy="611.15" r="8.61"/>
				<circle class="st8" cx="406.41" cy="251.75" r="8.61"/>
				<path class="st8" d="M649.86,91.59c0,4.76-3.86,8.61-8.61,8.61s-8.61-3.86-8.61-8.61c0-4.76,3.86-8.61,8.61-8.61
					S649.86,86.83,649.86,91.59z"/>
				<circle class="st8" cx="1351.63" cy="509.96" r="8.61"/>
				<path class="st8" d="M575.29,660.19c-3.61,3.09-9.05,2.67-12.15-0.94c-3.09-3.61-2.67-9.05,0.94-12.15
					c3.61-3.09,9.05-2.67,12.15,0.94C579.33,651.66,578.91,657.09,575.29,660.19z"/>
				<path class="st8" d="M1053.26,52.55c0,4.76-3.86,8.61-8.61,8.61s-8.61-3.86-8.61-8.61c0-4.76,3.86-8.61,8.61-8.61
					S1053.26,47.8,1053.26,52.55z"/>
				
					<ellipse transform="matrix(0.1602 -0.9871 0.9871 0.1602 329.0512 1857.0044)" class="st8" cx="1255.85" cy="735.13" rx="10.24" ry="10.24"/>
				
					<radialGradient id="SVGID_8_" cx="353.1916" cy="751.5184" r="76.6486" gradientTransform="matrix(0.9991 -0.0421 0.0421 0.9991 -34.9453 16.581)" gradientUnits="userSpaceOnUse">
					<stop  offset="0" style="stop-color:#E28C37"/>
					<stop  offset="0.2722" style="stop-color:#BB6346"/>
					<stop  offset="0.7672" style="stop-color:#791C60"/>
					<stop  offset="0.9981" style="stop-color:#5F006A"/>
				</radialGradient>
				<circle class="st9" cx="338.71" cy="771.31" r="62.83"/>
				
					<radialGradient id="SVGID_9_" cx="991.1339" cy="174.3625" r="32.1741" gradientTransform="matrix(0.9991 -0.0421 0.0421 0.9991 -34.9453 16.581)" gradientUnits="userSpaceOnUse">
					<stop  offset="0" style="stop-color:#E28C37"/>
					<stop  offset="0.2722" style="stop-color:#BB6346"/>
					<stop  offset="0.7672" style="stop-color:#791C60"/>
					<stop  offset="0.9981" style="stop-color:#5F006A"/>
				</radialGradient>
				<circle class="st10" cx="958.08" cy="156.93" r="26.37"/>
				
					<radialGradient id="SVGID_10_" cx="806.1559" cy="891.163" r="56.7002" gradientTransform="matrix(-0.0421 -0.9991 0.9991 -0.0421 78.6928 1738.8091)" gradientUnits="userSpaceOnUse">
					<stop  offset="0" style="stop-color:#55CDFF"/>
					<stop  offset="0.4806" style="stop-color:#6B63B4"/>
					<stop  offset="0.8345" style="stop-color:#791C82"/>
					<stop  offset="0.9981" style="stop-color:#7F006E"/>
				</radialGradient>
				<circle class="st11" cx="948.99" cy="903.89" r="46.48"/>
				
					<ellipse transform="matrix(0.9991 -0.0421 0.0421 0.9991 -7.6476 20.2365)" class="st0" cx="476.64" cy="191.69" rx="57.03" ry="28.96"/>
				
					<radialGradient id="SVGID_11_" cx="1179.6407" cy="453.0517" r="78.3111" gradientTransform="matrix(0.9991 -0.0421 0.0421 0.9991 -34.9453 16.581)" gradientUnits="userSpaceOnUse">
					<stop  offset="0" style="stop-color:#FF6A72"/>
					<stop  offset="0.9981" style="stop-color:#30007F"/>
				</radialGradient>
				<circle class="st12" cx="1151.62" cy="438.73" r="64.2"/>
				<polygon class="st8" points="1176.33,751.77 1179.19,768.56 1195.99,771.43 1179.19,774.29 1176.33,791.08 1173.47,774.29 
					1156.68,771.43 1173.47,768.56 				"/>
				<polygon class="st8" points="268.85,556.28 270.47,565.82 280.02,567.44 270.47,569.07 268.85,578.61 267.22,569.07 
					257.68,567.44 267.22,565.82 				"/>
				<polygon class="st8" points="1027.45,1006.31 1029.07,1015.85 1038.61,1017.48 1029.07,1019.1 1027.45,1028.64 1025.82,1019.1 
					1016.28,1017.48 1025.82,1015.85 				"/>
				<polygon class="st8" points="897.46,664.55 899.08,674.09 908.63,675.72 899.08,677.35 897.46,686.89 895.83,677.35 
					886.29,675.72 895.83,674.09 				"/>
				<polygon class="st8" points="673.94,808.02 675.56,817.57 685.11,819.19 675.56,820.82 673.94,830.36 672.31,820.82 
					662.77,819.19 672.31,817.57 				"/>
				<polygon class="st8" points="617,890.37 618.63,899.91 628.17,901.54 618.63,903.17 617,912.71 615.38,903.17 605.84,901.54 
					615.38,899.91 				"/>
				<polygon class="st8" points="432.03,700.19 433.65,709.73 443.19,711.35 433.65,712.98 432.03,722.52 430.4,712.98 
					420.86,711.35 430.4,709.73 				"/>
				<polygon class="st8" points="127.88,713.06 129.51,722.6 139.05,724.23 129.51,725.85 127.88,735.39 126.25,725.85 
					116.71,724.23 126.25,722.6 				"/>
				<polygon class="st8" points="1313.33,539.81 1317.04,561.61 1338.84,565.33 1317.04,569.04 1313.33,590.85 1309.61,569.04 
					1287.81,565.33 1309.61,561.61 				"/>
				<polygon class="st8" points="966.99,514.98 970.7,536.78 992.51,540.5 970.7,544.21 966.99,566.02 963.27,544.21 941.47,540.5 
					963.27,536.78 				"/>
				<polygon class="st8" points="764.94,681.64 767.81,698.5 784.68,701.37 767.81,704.25 764.94,721.11 762.07,704.25 
					745.2,701.37 762.07,698.5 				"/>
				<polygon class="st8" points="610.17,172.68 613.88,194.48 635.69,198.19 613.88,201.91 610.17,223.71 606.45,201.91 
					584.65,198.19 606.45,194.48 				"/>
				<polygon class="st8" points="158.59,842.11 162.31,863.91 184.11,867.63 162.31,871.34 158.59,893.14 154.88,871.34 
					133.07,867.63 154.88,863.91 				"/>
				<polygon class="st8" points="813.31,140.18 815.25,151.56 826.63,153.5 815.25,155.44 813.31,166.82 811.37,155.44 
					799.99,153.5 811.37,151.56 				"/>
				<polygon class="st8" points="1229.22,308.24 1231.16,319.62 1242.54,321.56 1231.16,323.5 1229.22,334.88 1227.28,323.5 
					1215.91,321.56 1227.28,319.62 				"/>
				<polygon class="st8" points="1019.43,442.19 1021.37,453.57 1032.75,455.51 1021.37,457.45 1019.43,468.83 1017.49,457.45 
					1006.11,455.51 1017.49,453.57 				"/>
				<polygon class="st8" points="399.6,27.15 401.54,38.53 412.92,40.47 401.54,42.4 399.6,53.78 397.66,42.4 386.28,40.47 
					397.66,38.53 				"/>
				<polygon class="st8" points="179.05,342.84 180.99,354.22 192.36,356.16 180.99,358.1 179.05,369.47 177.11,358.1 
					165.73,356.16 177.11,354.22 				"/>
				<ellipse class="st13" cx="740.81" cy="487.24" rx="215.34" ry="99.7"/>
				<ellipse class="st13" cx="741" cy="487.36" rx="119.54" ry="58.72"/>
				<ellipse class="st14" cx="742.95" cy="488.23" rx="59.77" ry="29.36"/>
			</g>
			<path class="st15" d="M759.11,767.06c-4.36,0-8.71-0.02-13.04-0.07l0.04-3.79c4.32,0.05,8.65,0.07,13,0.07l2.12,0v3.79
				L759.11,767.06z M776.4,766.94l-0.06-3.79c5.06-0.07,10.15-0.18,15.11-0.31l0.1,3.79C786.57,766.76,781.47,766.86,776.4,766.94z
				M730.91,766.73c-4.99-0.12-10.08-0.27-15.16-0.46l0.14-3.79c5.06,0.19,10.14,0.34,15.11,0.46L730.91,766.73z M806.71,766.11
				l-0.15-3.79c5.03-0.2,10.11-0.44,15.1-0.71l0.2,3.79C816.85,765.67,811.76,765.91,806.71,766.11z M700.6,765.62
				c-5.08-0.25-10.17-0.54-15.14-0.85l0.24-3.79c4.95,0.31,10.03,0.6,15.09,0.85L700.6,765.62z M836.99,764.5l-0.25-3.79
				c5.03-0.33,10.1-0.71,15.07-1.11l0.3,3.78C847.13,763.78,842.04,764.16,836.99,764.5z M670.34,763.71
				c-5.04-0.39-10.13-0.81-15.11-1.26l0.34-3.78c4.97,0.45,10.04,0.87,15.06,1.25L670.34,763.71z M867.22,762.07l-0.35-3.78
				c5.02-0.47,10.08-0.98,15.04-1.51l0.41,3.77C877.34,761.09,872.26,761.6,867.22,762.07z M640.13,760.99
				c-5-0.52-10.07-1.08-15.07-1.67l0.44-3.77c4.98,0.59,10.04,1.15,15.02,1.67L640.13,760.99z M897.38,758.83l-0.46-3.77
				c4.98-0.61,10.02-1.26,14.99-1.93l0.51,3.76C907.44,757.57,902.38,758.22,897.38,758.83z M610,757.43
				c-5.04-0.67-10.1-1.38-15.02-2.1l0.55-3.75c4.91,0.72,9.94,1.43,14.97,2.09L610,757.43z M927.44,754.74l-0.57-3.75
				c5.02-0.76,10.04-1.55,14.93-2.37l0.62,3.74C937.51,753.17,932.47,753.98,927.44,754.74z M579.99,753
				c-5.02-0.82-10.05-1.67-14.95-2.55l0.67-3.73c4.88,0.87,9.89,1.73,14.9,2.54L579.99,753z M957.36,749.76l-0.68-3.73
				c4.95-0.9,9.94-1.85,14.84-2.82l0.74,3.72C967.34,747.9,962.33,748.85,957.36,749.76z M550.13,747.68
				c-4.95-0.96-9.95-1.98-14.87-3.01l0.78-3.71c4.9,1.03,9.88,2.04,14.81,3L550.13,747.68z M987.12,743.86l-0.8-3.71
				c4.89-1.05,9.85-2.16,14.74-3.3l0.86,3.7C997.01,741.69,992.03,742.8,987.12,743.86z M520.44,741.41
				c-4.95-1.13-9.91-2.31-14.76-3.5l0.91-3.68c4.83,1.19,9.77,2.36,14.7,3.49L520.44,741.41z M1016.68,736.99l-0.92-3.68
				c4.9-1.23,9.82-2.5,14.62-3.8l0.99,3.66C1026.54,734.47,1021.6,735.76,1016.68,736.99z M490.98,734.14
				c-4.91-1.31-9.84-2.66-14.63-4.03l1.04-3.65c4.77,1.36,9.67,2.71,14.56,4.01L490.98,734.14z M1045.98,729.09l-1.05-3.64
				c4.87-1.41,9.73-2.87,14.47-4.34l1.13,3.62C1055.76,726.2,1050.87,727.67,1045.98,729.09z M461.8,725.81
				c-4.83-1.48-9.69-3.02-14.47-4.59l1.18-3.6c4.75,1.56,9.59,3.1,14.39,4.57L461.8,725.81z M1074.96,720.08l-1.2-3.6
				c4.78-1.59,9.58-3.24,14.28-4.92l1.27,3.57C1084.59,716.82,1079.77,718.48,1074.96,720.08z M432.96,716.32
				c-4.79-1.69-9.59-3.44-14.26-5.2l1.34-3.55c4.65,1.76,9.42,3.5,14.18,5.17L432.96,716.32z M1103.56,709.88l-1.35-3.54
				c4.7-1.8,9.43-3.66,14.04-5.55l1.44,3.51C1113.04,706.19,1108.29,708.07,1103.56,709.88z M404.56,705.59
				c-4.71-1.91-9.42-3.89-14-5.88l1.51-3.48c4.55,1.98,9.24,3.95,13.91,5.84L404.56,705.59z M1131.66,698.36l-1.53-3.47
				c4.64-2.04,9.26-4.15,13.73-6.26l1.62,3.43C1140.98,694.18,1136.33,696.3,1131.66,698.36z M376.71,693.47
				c-4.61-2.15-9.21-4.38-13.67-6.63l1.7-3.39c4.43,2.23,9,4.44,13.57,6.58L376.71,693.47z M1159.13,685.38l-1.72-3.38
				c4.49-2.28,8.98-4.65,13.33-7.04l1.83,3.33C1168.18,680.69,1163.66,683.08,1159.13,685.38z M349.57,679.8
				c-4.5-2.44-8.95-4.96-13.24-7.48l1.92-3.27c4.24,2.5,8.66,4.99,13.12,7.41L349.57,679.8z M1185.77,670.75l-1.94-3.26
				c4.39-2.61,8.7-5.27,12.81-7.93l2.06,3.19C1194.55,665.43,1190.2,668.12,1185.77,670.75z M323.37,664.37
				c-4.32-2.76-8.58-5.61-12.65-8.45l2.17-3.11c4.03,2.81,8.24,5.63,12.52,8.37L323.37,664.37z M1211.32,654.24l-2.19-3.1
				c4.15-2.93,8.22-5.94,12.1-8.95l2.33,3C1219.63,648.23,1215.51,651.28,1211.32,654.24z M298.44,646.93
				c-4.08-3.14-8.06-6.36-11.83-9.58l2.46-2.89c3.73,3.18,7.66,6.36,11.68,9.46L298.44,646.93z M1235.34,635.55l-2.48-2.87
				c3.85-3.32,7.59-6.73,11.1-10.12l2.64,2.73C1243.04,628.72,1239.25,632.18,1235.34,635.55z M275.31,627.13
				c-3.73-3.57-7.32-7.24-10.67-10.89l2.8-2.56c3.29,3.59,6.82,7.2,10.5,10.72L275.31,627.13z M1257.22,614.33l-2.81-2.55
				c3.42-3.77,6.67-7.62,9.65-11.45l2.99,2.33C1264.01,606.56,1260.7,610.49,1257.22,614.33z M254.74,604.62
				c-3.2-4.06-6.22-8.22-8.96-12.37l3.17-2.09c2.68,4.06,5.63,8.13,8.77,12.11L254.74,604.62z M1275.94,590.24l-3.18-2.07
				c2.76-4.23,5.31-8.56,7.56-12.87l3.36,1.76C1281.37,581.47,1278.77,585.9,1275.94,590.24z M237.97,579.12
				c-2.43-4.57-4.6-9.24-6.46-13.87l3.52-1.41c1.8,4.5,3.92,9.04,6.28,13.5L237.97,579.12z M1290.05,563.15l-3.53-1.39
				c1.83-4.66,3.39-9.41,4.62-14.12l3.67,0.96C1293.54,553.45,1291.94,558.35,1290.05,563.15z M226.65,550.74
				c-1.34-4.96-2.36-10.02-3.05-15.03l3.76-0.51c0.66,4.85,1.66,9.75,2.95,14.55L226.65,550.74z M1297.75,533.56l-3.76-0.49
				c0.63-4.83,0.95-9.75,0.95-14.62l-0.01-1l3.79-0.03l0.01,1.03C1298.73,523.48,1298.4,528.57,1297.75,533.56z M222.52,520.4
				l0-0.61c0-4.88,0.31-9.83,0.92-14.69l3.76,0.47c-0.59,4.71-0.89,9.49-0.89,14.21l0,0.59L222.52,520.4z M1293.83,502.64
				c-0.68-4.85-1.69-9.74-3-14.55l3.66-1c1.35,4.96,2.4,10.01,3.1,15.02L1293.83,502.64z M230,491.01l-3.67-0.95
				c1.25-4.86,2.84-9.76,4.71-14.57l3.54,1.38C232.76,481.54,231.22,486.29,230,491.01z M1286.06,474.02
				c-1.82-4.5-3.95-9.03-6.32-13.48l3.34-1.79c2.44,4.57,4.63,9.23,6.5,13.85L1286.06,474.02z M240.74,463.31l-3.37-1.75
				c2.29-4.41,4.89-8.85,7.71-13.2l3.18,2.06C245.51,454.67,242.97,459.01,240.74,463.31z M1272.07,447.74
				c-2.69-4.04-5.65-8.11-8.8-12.09l2.97-2.36c3.22,4.06,6.24,8.21,8.98,12.35L1272.07,447.74z M256.94,438.25l-3-2.33
				c3.04-3.91,6.34-7.85,9.81-11.69l2.82,2.54C263.16,430.55,259.92,434.41,256.94,438.25z M1253.53,424.27
				c-3.29-3.58-6.83-7.18-10.51-10.7l2.62-2.74c3.74,3.57,7.34,7.23,10.69,10.87L1253.53,424.27z M276.99,415.98l-2.64-2.72
				c3.55-3.45,7.34-6.91,11.24-10.29l2.48,2.87C284.22,409.17,280.49,412.58,276.99,415.98z M1231.86,403.52
				c-3.73-3.18-7.67-6.35-11.7-9.44l2.31-3.01c4.08,3.13,8.07,6.35,11.85,9.57L1231.86,403.52z M299.69,396.31l-2.33-2.99
				c3.91-3.05,8.03-6.1,12.23-9.07l2.19,3.1C307.63,390.28,303.56,393.3,299.69,396.31z M1208.01,385.2
				c-4.04-2.81-8.25-5.62-12.53-8.35l2.04-3.2c4.32,2.76,8.58,5.59,12.66,8.44L1208.01,385.2z M324.25,378.91l-2.06-3.19
				c4.17-2.7,8.52-5.4,12.92-8.02l1.94,3.26C332.69,373.57,328.38,376.24,324.25,378.91z M1182.63,368.99
				c-4.24-2.49-8.66-4.98-13.13-7.4l1.81-3.34c4.51,2.44,8.96,4.95,13.24,7.47L1182.63,368.99z M350.14,363.49l-1.83-3.32
				c4.36-2.4,8.88-4.79,13.43-7.11l1.72,3.38C358.95,358.74,354.47,361.11,350.14,363.49z M1156.13,354.61
				c-4.41-2.22-8.98-4.43-13.58-6.57l1.6-3.44c4.63,2.16,9.23,4.39,13.68,6.62L1156.13,354.61z M377.01,349.79l-1.62-3.43
				c4.51-2.13,9.16-4.26,13.82-6.31l1.53,3.47C386.11,345.57,381.49,347.67,377.01,349.79z M1128.8,341.85
				c-4.55-1.97-9.23-3.94-13.92-5.83l1.42-3.52c4.71,1.91,9.43,3.88,14.01,5.87L1128.8,341.85z M404.62,337.63l-1.44-3.51
				c4.62-1.9,9.37-3.78,14.12-5.6l1.36,3.54C413.93,333.87,409.21,335.74,404.62,337.63z M1100.82,330.53
				c-4.64-1.75-9.41-3.49-14.19-5.17l1.26-3.58c4.8,1.69,9.6,3.44,14.26,5.2L1100.82,330.53z M432.81,326.82l-1.28-3.57
				c4.71-1.68,9.54-3.35,14.35-4.95l1.2,3.6C442.3,323.49,437.5,325.15,432.81,326.82z M1072.33,320.51
				c-4.73-1.55-9.58-3.09-14.4-4.56l1.11-3.63c4.85,1.48,9.71,3.02,14.47,4.58L1072.33,320.51z M461.46,317.27l-1.13-3.62
				c4.76-1.48,9.65-2.95,14.53-4.37l1.06,3.64C471.06,314.33,466.19,315.79,461.46,317.27z M1043.45,311.67
				c-4.8-1.37-9.7-2.71-14.56-4l0.97-3.67c4.88,1.29,9.81,2.65,14.63,4.02L1043.45,311.67z M490.47,308.85l-0.99-3.66
				c4.82-1.3,9.76-2.59,14.68-3.82l0.92,3.68C500.18,306.27,495.26,307.55,490.47,308.85z M1014.25,303.93
				c-4.83-1.19-9.78-2.36-14.7-3.48l0.84-3.7c4.94,1.13,9.91,2.3,14.76,3.5L1014.25,303.93z M519.77,301.49l-0.86-3.7
				c4.86-1.13,9.84-2.25,14.8-3.32l0.8,3.71C529.57,299.25,524.61,300.36,519.77,301.49z M984.79,297.21
				c-4.86-1.03-9.85-2.03-14.81-2.99l0.72-3.72c4.98,0.97,9.99,1.98,14.87,3.01L984.79,297.21z M549.31,295.12l-0.74-3.72
				c4.9-0.97,9.92-1.93,14.9-2.84l0.68,3.73C559.19,293.2,554.19,294.15,549.31,295.12z M955.13,291.45
				c-4.89-0.87-9.9-1.72-14.9-2.53l0.61-3.74c5.01,0.81,10.05,1.67,14.95,2.54L955.13,291.45z M579.04,289.7l-0.62-3.74
				c4.96-0.83,10-1.63,14.98-2.38l0.57,3.75C589,288.08,583.98,288.88,579.04,289.7z M925.3,286.61c-4.94-0.72-9.97-1.43-14.97-2.09
				l0.5-3.76c5.01,0.66,10.07,1.37,15.02,2.1L925.3,286.61z M608.92,285.17l-0.51-3.76c4.94-0.67,10-1.33,15.04-1.95l0.46,3.77
				C618.89,283.85,613.85,284.5,608.92,285.17z M895.33,282.65c-4.98-0.59-10.03-1.14-15.02-1.66l0.39-3.77
				c5.01,0.52,10.08,1.08,15.07,1.67L895.33,282.65z M638.92,281.51l-0.41-3.77c4.98-0.54,10.05-1.05,15.09-1.52l0.36,3.78
				C648.94,280.46,643.88,280.97,638.92,281.51z M865.27,279.54c-4.98-0.45-10.05-0.87-15.06-1.25l0.29-3.78
				c5.03,0.38,10.11,0.8,15.11,1.25L865.27,279.54z M669.02,278.68l-0.3-3.78c4.99-0.4,10.08-0.78,15.12-1.11l0.25,3.79
				C679.06,277.9,673.99,278.27,669.02,278.68z M835.13,277.24c-4.99-0.31-10.06-0.6-15.09-0.85l0.19-3.79
				c5.04,0.25,10.14,0.53,15.14,0.85L835.13,277.24z M699.18,276.66l-0.2-3.79c5.02-0.27,10.11-0.51,15.15-0.71l0.15,3.79
				C709.26,276.15,704.18,276.39,699.18,276.66z M804.94,275.75c-4.99-0.18-10.07-0.33-15.11-0.45l0.09-3.79
				c5.05,0.12,10.15,0.27,15.16,0.45L804.94,275.75z M729.38,275.43l-0.1-3.79c5.03-0.14,10.13-0.25,15.16-0.32l0.06,3.79
				C739.48,275.18,734.39,275.29,729.38,275.43z M774.72,275.04c-4.18-0.04-8.38-0.07-12.59-0.07l-2.53,0l-0.01-3.79l2.54,0
				c4.22,0,8.43,0.02,12.63,0.07L774.72,275.04z"/>
			<path class="st15" d="M754.14,714.06l-0.01-3.79c5.02-0.01,10.09-0.06,15.06-0.15l0.07,3.79
				C764.27,714,759.18,714.05,754.14,714.06z M739.01,713.96c-5.04-0.07-10.13-0.19-15.13-0.34l0.12-3.79
				c4.97,0.15,10.04,0.27,15.06,0.34L739.01,713.96z M784.39,713.51l-0.13-3.79c4.97-0.17,10.04-0.39,15.05-0.64l0.19,3.79
				C794.47,713.12,789.38,713.34,784.39,713.51z M708.77,713.03c-5.02-0.24-10.1-0.52-15.11-0.84l0.24-3.79
				c4.98,0.32,10.05,0.6,15.04,0.84L708.77,713.03z M814.61,711.97l-0.26-3.79c5.02-0.34,10.07-0.72,15.02-1.14l0.32,3.78
				C824.72,711.24,819.65,711.63,814.61,711.97z M678.57,711.09c-4.99-0.41-10.06-0.86-15.07-1.36l0.37-3.78
				c4.99,0.49,10.04,0.95,15,1.35L678.57,711.09z M844.76,709.41l-0.39-3.77c5.01-0.51,10.05-1.07,14.97-1.67l0.45,3.77
				C854.85,708.33,849.79,708.89,844.76,709.41z M648.45,708.11c-5.02-0.59-10.08-1.22-15.01-1.89l0.51-3.76
				c4.92,0.66,9.94,1.3,14.95,1.88L648.45,708.11z M874.81,705.79l-0.52-3.76c4.99-0.7,10.01-1.44,14.9-2.21l0.59,3.75
				C884.86,704.34,879.83,705.09,874.81,705.79z M618.46,704.05c-4.98-0.77-10.01-1.59-14.93-2.45l0.65-3.74
				c4.9,0.85,9.91,1.67,14.86,2.44L618.46,704.05z M904.7,701.06l-0.66-3.73c4.91-0.87,9.89-1.81,14.8-2.78l0.74,3.72
				C914.64,699.25,909.64,700.19,904.7,701.06z M588.64,698.86c-4.94-0.96-9.93-1.98-14.83-3.04l0.8-3.71
				c4.87,1.05,9.84,2.07,14.75,3.02L588.64,698.86z M934.4,695.17l-0.82-3.7c4.92-1.08,9.85-2.22,14.67-3.39l0.89,3.69
				C944.31,692.94,939.34,694.09,934.4,695.17z M559.05,692.47c-4.9-1.17-9.84-2.4-14.69-3.67l0.96-3.67
				c4.82,1.26,9.73,2.49,14.61,3.65L559.05,692.47z M963.83,688.04l-0.98-3.67c4.87-1.3,9.75-2.66,14.5-4.04l1.06,3.64
				C973.64,685.37,968.73,686.74,963.83,688.04z M529.75,684.79c-4.86-1.4-9.74-2.86-14.51-4.36l1.14-3.62
				c4.73,1.49,9.58,2.95,14.41,4.33L529.75,684.79z M992.9,679.56l-1.15-3.62c4.8-1.53,9.61-3.13,14.28-4.75l1.25,3.58
				C1002.57,676.41,997.74,678.02,992.9,679.56z M500.86,675.7c-4.81-1.65-9.61-3.38-14.26-5.12l1.33-3.55
				c4.62,1.74,9.38,3.45,14.16,5.09L500.86,675.7z M1021.52,669.6l-1.35-3.55c4.72-1.79,9.42-3.66,13.98-5.55l1.45,3.5
				C1031.01,665.91,1026.27,667.79,1021.52,669.6z M472.49,665.04c-4.72-1.94-9.41-3.95-13.93-5.98l1.55-3.46
				c4.48,2.01,9.13,4.01,13.82,5.93L472.49,665.04z M1049.51,657.97l-1.57-3.46c4.61-2.09,9.18-4.26,13.57-6.45l1.69,3.4
				C1058.77,653.67,1054.16,655.86,1049.51,657.97z M444.84,652.6c-4.58-2.26-9.11-4.6-13.48-6.97l1.81-3.33
				c4.32,2.35,8.81,4.67,13.34,6.9L444.84,652.6z M1076.65,644.43l-1.82-3.33c4.45-2.44,8.82-4.96,13-7.5l1.97,3.24
				C1085.57,639.42,1081.15,641.97,1076.65,644.43z M418.18,638.1c-4.41-2.65-8.72-5.39-12.82-8.14l2.11-3.15
				c4.05,2.72,8.31,5.42,12.66,8.04L418.18,638.1z M1102.59,628.65l-2.13-3.14c4.21-2.85,8.3-5.79,12.17-8.74l2.3,3.02
				C1111.01,622.78,1106.85,625.76,1102.59,628.65z M392.98,621.15c-4.13-3.12-8.11-6.33-11.84-9.55l2.48-2.87
				c3.67,3.17,7.59,6.33,11.65,9.39L392.98,621.15z M1126.73,610.18l-2.49-2.86c3.84-3.34,7.51-6.78,10.9-10.22l2.7,2.67
				C1134.38,603.27,1130.64,606.78,1126.73,610.18z M369.98,601.25c-3.67-3.68-7.13-7.46-10.29-11.24l2.91-2.43
				c3.09,3.69,6.47,7.39,10.07,11L369.98,601.25z M1148.07,588.47l-2.92-2.42c3.23-3.91,6.22-7.93,8.88-11.93l3.16,2.1
				C1154.46,580.33,1151.39,584.45,1148.07,588.47z M350.5,577.81c-2.91-4.32-5.52-8.76-7.76-13.17l3.38-1.72
				c2.17,4.28,4.7,8.57,7.53,12.77L350.5,577.81z M1164.87,563l-3.39-1.7c2.25-4.49,4.15-9.08,5.68-13.64l3.6,1.2
				C1169.17,553.59,1167.19,558.35,1164.87,563z M336.77,550.55c-1.67-4.89-2.95-9.89-3.81-14.84l3.74-0.65
				c0.83,4.76,2.06,9.56,3.66,14.27L336.77,550.55z M1174.46,533.99l-3.74-0.62c0.8-4.8,1.2-9.69,1.2-14.52l0-0.84l3.79-0.04l0,0.88
				C1175.71,523.88,1175.29,528.98,1174.46,533.99z M331.6,520.4l0-0.51c0-4.92,0.4-9.9,1.19-14.79l3.75,0.61
				c-0.76,4.69-1.14,9.46-1.14,14.18l0,0.49L331.6,520.4z M1170.55,503.34c-0.84-4.76-2.09-9.55-3.72-14.25l3.59-1.24
				c1.69,4.89,2.99,9.88,3.86,14.83L1170.55,503.34z M340.04,491.41l-3.6-1.19c1.56-4.74,3.52-9.5,5.83-14.16l3.4,1.69
				C343.44,482.25,341.55,486.84,340.04,491.41z M1161.02,475.5c-2.18-4.27-4.73-8.56-7.56-12.75l3.14-2.13
				c2.92,4.32,5.55,8.74,7.8,13.15L1161.02,475.5z M353.08,464.91l-3.17-2.09c2.72-4.12,5.77-8.25,9.08-12.27l2.93,2.41
				C358.7,456.88,355.73,460.9,353.08,464.91z M1144.48,450.9c-3.09-3.69-6.49-7.38-10.09-10.98l2.68-2.68
				c3.68,3.67,7.15,7.45,10.32,11.22L1144.48,450.9z M371.91,441.89l-2.7-2.66c3.46-3.51,7.19-7.02,11.09-10.44l2.5,2.86
				C378.96,435,375.3,438.44,371.91,441.89z M1123.42,429.77c-3.67-3.16-7.6-6.31-11.66-9.38l2.28-3.03
				c4.13,3.11,8.12,6.32,11.85,9.53L1123.42,429.77z M394.39,422.18l-2.3-3.01c3.92-3,8.07-5.99,12.33-8.88l2.13,3.14
				C402.35,416.28,398.26,419.22,394.39,422.18z M1099.53,411.73c-4.06-2.71-8.32-5.41-12.67-8.03l1.95-3.25
				c4.4,2.64,8.72,5.38,12.83,8.12L1099.53,411.73z M419.17,405.32l-1.97-3.24c4.23-2.58,8.65-5.13,13.14-7.6l1.83,3.32
				C427.72,400.24,423.35,402.77,419.17,405.32z M1073.81,396.27c-4.3-2.33-8.79-4.65-13.35-6.89l1.67-3.4
				c4.6,2.26,9.13,4.6,13.48,6.96L1073.81,396.27z M445.47,390.83l-1.69-3.39c4.44-2.22,9.05-4.41,13.69-6.52l1.57,3.45
				C454.44,386.46,449.87,388.64,445.47,390.83z M1046.86,382.99c-4.48-2.01-9.13-4-13.82-5.92l1.44-3.51
				c4.73,1.94,9.42,3.94,13.93,5.97L1046.86,382.99z M472.83,378.37l-1.46-3.5c4.59-1.91,9.33-3.79,14.08-5.6l1.35,3.55
				C482.08,374.61,477.38,376.48,472.83,378.37z M1019.04,371.59c-4.62-1.73-9.38-3.44-14.16-5.08l1.23-3.59
				c4.82,1.65,9.61,3.37,14.26,5.11L1019.04,371.59z M500.94,367.66l-1.25-3.58c4.69-1.63,9.52-3.25,14.37-4.79l1.15,3.61
				C510.4,364.43,505.6,366.04,500.94,367.66z M990.58,361.82c-4.73-1.48-9.58-2.94-14.42-4.33l1.04-3.65
				c4.87,1.4,9.75,2.86,14.51,4.35L990.58,361.82z M529.61,358.5l-1.06-3.64c4.78-1.4,9.69-2.77,14.59-4.07l0.98,3.67
				C539.24,355.75,534.36,357.11,529.61,358.5z M961.64,353.52c-4.8-1.25-9.72-2.48-14.61-3.64l0.88-3.69
				c4.92,1.17,9.86,2.4,14.69,3.67L961.64,353.52z M558.7,350.74l-0.9-3.69c4.86-1.18,9.82-2.33,14.75-3.41l0.82,3.7
				C568.47,348.42,563.53,349.57,558.7,350.74z M932.34,346.55c-4.84-1.04-9.8-2.06-14.75-3.02l0.72-3.72
				c4.98,0.97,9.97,1.99,14.83,3.03L932.34,346.55z M588.11,344.26l-0.74-3.72c4.9-0.97,9.91-1.92,14.88-2.8l0.67,3.73
				C597.97,342.35,592.99,343.29,588.11,344.26z M902.77,340.81c-4.9-0.85-9.91-1.67-14.86-2.43l0.58-3.75
				c4.98,0.77,10.01,1.59,14.94,2.44L902.77,340.81z M617.77,338.97l-0.59-3.75c4.93-0.78,9.97-1.53,14.97-2.23l0.52,3.76
				C627.69,337.45,622.68,338.2,617.77,338.97z M873,336.23c-4.91-0.66-9.94-1.29-14.95-1.88l0.44-3.77
				c5.03,0.59,10.08,1.22,15.02,1.89L873,336.23z M647.6,334.81l-0.46-3.77c4.95-0.6,10.01-1.16,15.04-1.68l0.39,3.77
				C657.57,333.66,652.53,334.22,647.6,334.81z M843.08,332.75c-4.95-0.49-9.99-0.94-15.01-1.35l0.31-3.78
				c5.03,0.41,10.1,0.86,15.07,1.35L843.08,332.75z M677.57,331.73l-0.32-3.78c4.99-0.42,10.06-0.81,15.09-1.16l0.26,3.79
				C687.59,330.92,682.54,331.31,677.57,331.73z M813.04,330.31c-4.98-0.32-10.04-0.6-15.04-0.83l0.18-3.79
				c5.03,0.24,10.11,0.52,15.11,0.84L813.04,330.31z M707.64,329.68l-0.2-3.79c5.01-0.26,10.1-0.48,15.12-0.65l0.13,3.79
				C717.69,329.2,712.63,329.42,707.64,329.68z M782.94,328.9c-4.97-0.15-10.04-0.26-15.06-0.33l0.05-3.79
				c5.04,0.07,10.13,0.18,15.13,0.34L782.94,328.9z M737.75,328.63l-0.07-3.79c5.01-0.09,10.1-0.14,15.12-0.16l0.01,3.79
				C747.81,328.49,742.74,328.54,737.75,328.63z"/>
		</g>
		<g>
			<radialGradient id="SVGID_12_" cx="471.4663" cy="477.7369" r="48.6199" gradientUnits="userSpaceOnUse">
				<stop  offset="0" style="stop-color:#FF6A00"/>
				<stop  offset="1" style="stop-color:#7F3800"/>
			</radialGradient>
			<circle class="st16" cx="476.03" cy="502.86" r="48.62"/>
			<radialGradient id="SVGID_13_" cx="477.6586" cy="504.4203" r="67.9474" gradientUnits="userSpaceOnUse">
				<stop  offset="0.2513" style="stop-color:#FFD17F"/>
				<stop  offset="0.9512" style="stop-color:#FF9330"/>
				<stop  offset="1" style="stop-color:#FF8F2A"/>
			</radialGradient>
			<path class="st17" d="M567.49,482.48c-2.4-9.81-24.18-13.51-54.06-10.69c0.94,1.12,1.82,2.29,2.65,3.5
				c21.72-1.64,36.94,0.93,38.59,7.67c2.61,10.67-29.75,27.74-72.27,38.12c-42.52,10.39-79.1,10.16-81.71-0.51
				c-1.54-6.32,9.18-14.88,27-22.97c0.17-1.57,0.41-3.12,0.73-4.64c-26.39,11.05-42.92,23.88-40.59,33.4
				c3.42,14.02,46.42,15.56,96.03,3.44C533.47,517.68,570.91,496.5,567.49,482.48z"/>
		</g>
	</g>
</g>
</svg>
